<svg height="48pt" viewBox="0 0 48 48" width="48pt" xmlns="http://www.w3.org/2000/svg" xmlns:xlink="http://www.w3.org/1999/xlink"><linearGradient id="a"><stop offset="0" stop-color="#22d88f"/><stop offset=".51739130435" stop-color="#9387da"/><stop offset=".98695652174" stop-color="#ff59e6"/></linearGradient><linearGradient id="b" gradientTransform="matrix(42 0 0 42.459 3 2.771)" gradientUnits="userSpaceOnUse" x1="0" x2="1" xlink:href="#a" y1=".5" y2=".5"/><linearGradient id="c" x1="0" x2="1" xlink:href="#a" y1=".5" y2=".5"/><linearGradient id="d" gradientUnits="userSpaceOnUse" x1="12.823503336" x2="24.346062" y1="24.594785672" y2="36.117362264"><stop offset=".01304347826" stop-color="#feac5e"/><stop offset=".53043478261" stop-color="#c779d0"/><stop offset=".99565217391" stop-color="#4bc0c8"/></linearGradient><linearGradient id="e" gradientTransform="matrix(6.601 3.811 -3.811 6.601 17.613 24.913)" gradientUnits="userSpaceOnUse" x1="0" x2=".907488" y1=".5" y2=".920078"><stop offset="0" stop-color="#f7f107"/><stop offset=".83888397938" stop-color="#ffbb24"/></linearGradient><path d="m44.999 19.621c-.033-2.267-.933-4.398-2.536-6.001-1.659-1.659-3.865-2.561-6.211-2.536-1.799.018-3.504.578-4.935 1.601v-6.546h-3.345c-3.401 0-6.761-.545-9.987-1.62-3.48-1.16-7.105-1.748-10.774-1.748h-3.778v2.748l.664.981c2.053 3.031 3.138 6.569 3.138 10.23 0 2.477-.672 4.908-1.943 7.033-2.664 4.453-3.028 9.955-.974 14.72l2.91 6.746h24.096l2.91-6.746c.725-1.682 1.147-3.456 1.275-5.242l7.128-7.55c1.556-1.648 2.395-3.804 2.362-6.07zm-36.135 23.121-2.261-5.245c-1.739-4.032-1.431-8.688.824-12.456 1.502-2.511 2.296-5.385 2.296-8.311 0-4.098-1.197-8.061-3.463-11.472h.951c3.401 0 6.761.546 9.987 1.621 3.48 1.16 7.105 1.748 10.774 1.748h.857v8.103c0 2.926.794 5.8 2.297 8.311 2.254 3.768 2.562 8.424.823 12.456l-2.261 5.245zm26.519-12.992c-.302-2.091-1.012-4.13-2.123-5.987-1.271-2.125-1.943-4.556-1.943-7.033v-.67l.569-.593c1.159-1.205 2.718-1.879 4.391-1.895 1.671-.019 3.244.625 4.427 1.808 1.142 1.142 1.784 2.661 1.808 4.276.023 1.616-.575 3.153-1.684 4.327z" fill="url(#b)" stroke="url(#c)"/><path d="m15.435 25.094c-.222-.169-.44-.331-.613-.431-1.475-.852-3.442-.207-3.827.461-.386.668.039 2.694 1.514 3.545.173.1.423.208.68.316-.278.037-.546.076-.738.128-1.646.44-2.58 2.287-2.381 3.032.2.745 1.933 1.877 3.578 1.436.193-.051.445-.152.704-.258-.17.223-.332.44-.432.613-.852 1.475-.206 3.442.461 3.828.668.385 2.694-.04 3.546-1.515.099-.173.206-.421.314-.68.038.277.077.545.129.738.441 1.646 2.288 2.58 3.032 2.381.745-.2 1.877-1.933 1.437-3.578-.055-.203-.164-.473-.274-.743.253.22.461.375.628.471 1.475.852 3.442.207 3.828-.461.385-.668-.039-2.694-1.515-3.546-.173-.099-.422-.207-.681-.315.278-.037.547-.076.74-.128 1.645-.441 2.58-2.288 2.38-3.032-.199-.745-1.932-1.877-3.578-1.437-.186.05-.427.146-.727.292.176-.233.35-.464.455-.646.852-1.475.207-3.442-.461-3.828-.668-.385-2.694.039-3.545 1.515-.1.173-.208.422-.316.68-.037-.278-.076-.546-.127-.739-.441-1.645-2.288-2.58-3.033-2.38-.745.199-1.877 1.932-1.436 3.578.051.192.152.444.258.703z" fill="url(#d)" fill-rule="evenodd"/><path d="m15.707 28.214c1.052-1.822 3.385-2.447 5.206-1.395 1.822 1.052 2.447 3.384 1.395 5.206-1.051 1.822-3.384 2.447-5.206 1.395s-2.447-3.384-1.395-5.206z" fill="url(#e)"/></svg>